<svg xmlns="http://www.w3.org/2000/svg" version="1.1" xmlns:xlink="http://www.w3.org/1999/xlink" xmlns:svgjs="http://svgjs.dev/svgjs" width="100%" height="100%" viewBox="0 0 1000 600"><rect width="1000" height="600" x="0" y="0" fill="#509e98"/><g><circle r="166.66666666666666" cx="298.43984476725257" cy="320.66210402599637" fill="#080a52" transform="matrix(0.9485995227358979,0,0,0.9485995227358979,0,-4.179909301805026)"/><path d="M222.63218994224724 395.6621216903244Q204.00055257447613 395.6621216903244 190.54901169460553 384.8284790355217Q177.12532079585267 373.9948363807191 170.19067549753427 356.44934827654004Q163.28388018033363 338.90386017236096 163.28388018033363 319.4645733521753L163.28388018033363 319.4645733521753Q163.28388018033363 299.1897870984573 170.10712555418104 282.3683985033396Q176.93037092802845 265.51915992710417 189.54641237436672 255.5767166680694Q202.19030380182275 245.66212339015235 219.0395423780582 245.66212339015235L219.0395423780582 245.66212339015235Q227.84013641126546 245.66212339015235 235.66598110535168 249.67252067110758Q243.49182579943792 253.68291795206278 248.50482240063192 258.30601481760834L248.50482240063192 258.30601481760834Q253.3228691340017 262.706311834212 254.91031805771314 262.706311834212L254.91031805771314 262.706311834212Q256.52561696254236 262.706311834212 257.2218664904859 261.7037125139732Q257.9181160184296 260.7011131937344 258.7257654708442 258.50096468543256L258.7257654708442 258.50096468543256L262.54121288397516 247.27742229498153L267.55420948516917 247.27742229498153L268.36185893758375 309.4385801497873L262.7361627517994 309.4385801497873Q258.33586573519574 290.3891930652501 251.3176704935241 277.4389518454989Q244.2994752518525 264.51656060686537 235.97233089764686 258.30601481760834Q227.64518654344127 252.0676190472336 219.4294421137066 252.0676190472336L219.4294421137066 252.0676190472336Q200.38005502916934 252.0676190472336 192.4706603917299 269.33460734023515Q184.53341577317272 286.57374565211904 184.53341577317272 319.4645733521753L184.53341577317272 319.4645733521753Q184.53341577317272 353.33015039135273 192.74916020290735 371.29338821229794Q200.99275461375973 389.22877605212534 222.63218994224724 389.22877605212534L222.63218994224724 389.22877605212534Q241.8765268946087 389.22877605212534 252.01392002146773 374.886035776487Q262.1513131483267 360.57114548196625 263.54381220421396 340.101409360424L263.54381220421396 340.101409360424L270.7569573137098 340.101409360424Q270.1721077102371 351.9376513354655 265.8553606369868 364.58154276292146Q261.53861356373636 377.19758420925973 250.89992077675794 386.41592795923316Q240.28907797089727 395.6621216903244 222.63218994224724 395.6621216903244L222.63218994224724 395.6621216903244ZM363.60879436027005 395.6621216903244L316.87652604469474 264.51656060686537Q315.06627727204136 259.50356400567136 312.2812791602669 257.58191530854697Q309.4684310673747 255.68811659254038 305.04028406965335 255.68811659254038L305.04028406965335 255.68811659254038L292.4242426233151 255.68811659254038L292.4242426233151 249.28262093545914L356.59059911859845 249.28262093545914L356.59059911859845 255.68811659254038L343.3618580876698 255.68811659254038Q340.54900999477763 255.68811659254038 338.54381135430003 257.1920155728986Q336.53861271382243 258.6959145532568 336.53861271382243 260.7011131937344L336.53861271382243 260.7011131937344Q336.53861271382243 262.9012617020362 337.346262166237 265.10141021033803L337.346262166237 265.10141021033803L371.62958892218046 361.57374480220506L398.08707098403784 280.14040001392004Q400.5100193412816 272.3424053009516 400.5100193412816 266.32680937951875L400.5100193412816 266.32680937951875Q400.5100193412816 262.09361224962163 398.19847090850874 258.890864421081Q395.886922475736 255.68811659254038 390.26122628995165 255.68811659254038L390.26122628995165 255.68811659254038L379.45543361626676 255.68811659254038L379.45543361626676 249.28262093545914L433.5957969091621 249.28262093545914L433.5957969091621 255.68811659254038L426.15985195072426 255.68811659254038Q419.14165670905265 255.68811659254038 415.3262092959217 259.8099137979666Q411.5386118639085 263.903861022275 409.31061337448887 270.33720666047395L409.31061337448887 270.33720666047395L368.62179096146406 395.6621216903244L363.60879436027005 395.6621216903244Z " fill="#a7b8bf" transform="matrix(0.9485995227358979,0,0,0.9485995227358979,0,-4.179909301805026)"/><path d="M617.5037701968864 394.4064215513881L578.2343619801326 264.15527394872515L577.007192973359 264.15527394872515L577.007192973359 368.9497993643646Q577.007192973359 376.5411239178941 580.6030835513467 380.964640105101Q584.1989741293343 385.38815629230805 589.9638145797588 385.38815629230805L589.9638145797588 385.38815629230805L597.3553674345113 385.38815629230805L597.3553674345113 391.95208353784096L548.4398400482352 391.95208353784096L548.4398400482352 385.38815629230805L555.8599317170984 385.38815629230805Q561.596233353412 385.38815629230805 565.1921239313997 380.964640105101Q568.7880145093874 376.5411239178941 568.7880145093874 368.9497993643646L568.7880145093874 368.9497993643646L568.7880145093874 257.7625795878583Q568.7880145093874 254.90869817675696 567.4466902461696 253.56737391353937Q566.1339047970631 252.22604965032178 563.2514845718508 252.22604965032178L563.2514845718508 252.22604965032178L548.4398400482352 252.22604965032178L548.4398400482352 245.66212240478882L592.0186091957518 245.66212240478882L625.49463814797 358.87559798317704L656.7446395995291 245.66212240478882L699.2674726249384 245.66212240478882L699.2674726249384 252.22604965032178L684.4843669154337 252.22604965032178Q681.6019466902213 252.22604965032178 680.2606224270038 253.56737391353937Q678.9192981637862 254.90869817675696 678.9192981637862 257.7625795878583L678.9192981637862 257.7625795878583L678.9192981637862 379.8230875406605Q678.9192981637862 385.38815629230805 684.4843669154337 385.38815629230805L684.4843669154337 385.38815629230805L699.2674726249384 385.38815629230805L699.2674726249384 391.95208353784096L639.6784287611434 391.95208353784096L639.6784287611434 385.38815629230805L654.4900732847591 385.38815629230805Q660.0266032222956 385.38815629230805 660.0266032222956 379.8230875406605L660.0266032222956 379.8230875406605L660.0266032222956 258.5902051970777L622.4124462239805 394.4064215513881L617.5037701968864 394.4064215513881ZM779.6042343474397 395.6621293722727L740.5631366435741 261.27285372351287Q738.7366525404692 256.13586718353054 735.8542323152569 254.16668900987065Q732.9718120900446 252.22604965032178 728.4626794605047 252.22604965032178L728.4626794605047 252.22604965032178L715.7058295528818 252.22604965032178L715.7058295528818 245.66212240478882L776.5220424234503 245.66212240478882L776.5220424234503 252.22604965032178L766.6761515551509 252.22604965032178Q763.7937313299386 252.22604965032178 761.7389367139457 253.76714561231645Q759.6841420979528 255.30824157431115 759.6841420979528 257.3630361903041L759.6841420979528 257.3630361903041Q759.6841420979528 259.0182874087428 760.5117677071721 261.87216881984415L760.5117677071721 261.87216881984415L787.8234128114115 356.39272115551887L812.7092587162148 266.4098402634952L810.6544641002218 259.8173742038512Q809.1989845805602 255.70778497186535 804.8896236497972 253.96691731109354Q800.5802627190343 252.22604965032178 796.0425912753832 252.22604965032178L796.0425912753832 252.22604965032178L790.1065179402925 252.22604965032178L790.1065179402925 245.66212240478882L850.922730810861 245.66212240478882L850.922730810861 252.22604965032178L842.9033240456664 252.22604965032178Q832.4295792669246 252.22604965032178 832.4295792669246 262.8995661278406L832.4295792669246 262.8995661278406Q832.4295792669246 265.7819863530529 833.6567482736983 269.2922604887075L833.6567482736983 269.2922604887075L859.541452672387 358.2477440727348L885.0266136735215 277.2831284397911Q886.4535543790722 271.74659850225464 886.9672530330704 268.7785618347093Q887.4809516870686 265.7819863530529 887.4809516870686 261.47262542229L887.4809516870686 261.47262542229Q887.4809516870686 257.56280788908117 883.885061109081 254.90869817675696Q880.2891705310934 252.22604965032178 873.9250149843375 252.22604965032178L873.9250149843375 252.22604965032178L866.9330055271392 252.22604965032178L866.9330055271392 245.66212240478882L922.4124601589484 245.66212240478882L922.4124601589484 252.22604965032178L913.5939665986454 252.22604965032178Q906.6019571414473 252.22604965032178 902.8062948646825 256.33563888230765Q899.0106325879178 260.4452281142935 896.9558379719249 267.23746587271455L896.9558379719249 267.23746587271455L856.0597173508434 395.6621293722727L850.922730810861 395.6621293722727L817.2183913457549 281.39271767177695L784.7412208874222 395.6621293722727L779.6042343474397 395.6621293722727Z " fill="#080a52" transform="matrix(0.9485995227358979,0,0,0.9485995227358979,0,-4.179909301805026)"/></g></svg>